<svg viewBox="0 -256 1792 1792">
  <path transform="matrix(-1,0,0,-1,1408,1280)" fill="#bbb"
    d="M 259.5 832.9 V 179.7 q 0 -15.9 -11.2 -26.1 q -11.2 -10.2 -28.6 -10.2 h -79.6 q -17.4 0 -28.6 10.2 q -11.2 10.2 -11.2 26.1 v 653.1 q 0 15.9 11.2 26.1 q 11.2 10.2 28.6 10.2 h 79.6 q 17.4 0 28.6 -10.2 q 11.2 -10.2 11.2 -26.1 z m 318.3 0 V 179.7 q 0 -15.9 -11.2 -26.1 q -11.2 -10.2 -28.6 -10.2 h -79.6 q -17.4 0 -28.6 10.2 q -11.2 10.2 -11.2 26.1 v 653.1 q 0 15.9 11.2 26.1 q 11.2 10.2 28.6 10.2 h 79.6 q 17.4 0 28.6 -10.2 q 11.2 -10.2 11.2 -26.1 z m 318.3 0 V 179.7 q 0 -15.9 -11.2 -26.1 q -11.2 -10.2 -28.6 -10.2 h -79.6 q -17.4 0 -28.6 10.2 q -11.2 10.2 -11.2 26.1 v 653.1 q 0 15.9 11.2 26.1 q 11.2 10.2 28.6 10.2 h 79.6 q 17.4 0 28.6 -10.2 q 11.2 -10.2 11.2 -26.1 z M 1055.4 11.9 v 1075 H -58.8 V 11.9 Q -58.8 -13.1 -50.1 -34 Q -41.4 -55 -32.1 -64.6 Q -22.7 -74.3 -19 -74.3 h 1034.6 q 3.7 0 13.1 9.6 q 9.3 9.6 18 30.6 q 8.7 21 8.7 45.9 z M 219.7 1232 h 557.1 l -59.7 132.7 q -8.7 10.2 -21.1 12.5 H 301.8 q -12.4 -2.3 -21.1 -12.5 z m 1154 -36.3 v -72.6 q 0 -15.9 -11.2 -26.1 q -11.2 -10.2 -28.6 -10.2 h -119.4 V 11.9 q 0 -94.1 -58.4 -162.7 q -58.4 -68.6 -140.5 -68.6 H -19 q -82.1 0 -140.5 66.3 Q -218 -86.8 -218 7.4 v 1079.5 H -337.4 q -17.4 0 -28.6 10.2 q -11.2 10.2 -11.2 26.1 v 72.6 q 0 15.9 11.2 26.1 q 11.2 10.2 28.6 10.2 h 384.2 l 87 189.4 q 18.7 42 67.1 71.4 q 48.5 29.5 98.2 29.5 h 397.9 q 49.7 0 98.2 -29.5 q 48.5 -29.5 67.1 -71.4 l 87 -189.4 h 384.2 q 17.4 0 28.6 -10.2 q 11.2 -10.2 11.2 -26.1 z">
  </path>
</svg>